<?xml version="1.0" encoding="UTF-8" standalone="no"?>
<!-- Created with Inkscape (http://www.inkscape.org/) -->

<svg
   width="29.681465mm"
   height="29.681465mm"
   viewBox="0 0 29.681465 29.681465"
   version="1.1"
   id="svg1"
   xmlns:xlink="http://www.w3.org/1999/xlink"
   xmlns="http://www.w3.org/2000/svg"
   xmlns:svg="http://www.w3.org/2000/svg">
  <defs
     id="defs1">
    <linearGradient
       xlink:href="#linearGradient10151"
       id="linearGradient3565"
       gradientUnits="userSpaceOnUse"
       gradientTransform="matrix(0.26047914,0,0,0.26047914,-124.16735,-113.03719)"
       x1="567.70575"
       y1="821.75909"
       x2="602.55603"
       y2="880.85303" />
    <linearGradient
       id="linearGradient10151">
      <stop
         style="stop-color:#989898;stop-opacity:1"
         offset="0"
         id="stop10145" />
      <stop
         style="stop-color:#b7b7b7;stop-opacity:1;"
         offset="0.4710511"
         id="stop10147" />
      <stop
         style="stop-color:#7d7d7d;stop-opacity:1"
         offset="1"
         id="stop10149" />
    </linearGradient>
  </defs>
  <g
     id="layer1"
     transform="translate(-13.758345,-93.662498)">
    <path
       id="path15401-8-6-9-8-9-00-8-2-4-3-9-4-4-5-1-4-3"
       style="font-variation-settings:normal;display:inline;vector-effect:none;fill:#000000;fill-opacity:1;stroke:none;stroke-width:1.23999;stroke-linecap:butt;stroke-linejoin:miter;stroke-miterlimit:4;stroke-dasharray:none;stroke-dashoffset:0;stroke-opacity:1;-inkscape-stroke:none;marker:none;paint-order:fill markers stroke;stop-color:#0c0c0c"
       d="m 28.46942,93.68029 -5.5e-4,6.4e-4 c -1.00888,0.016 -2.00218,0.28248 -2.88744,0.78208 l -8.6684,4.89156 c -1.48058,0.83545 -2.39053,2.40518 -2.39053,4.10519 l 0.0237,10.06569 c 0.004,1.82621 0.99404,3.50793 2.58842,4.39857 l 8.07753,4.51239 c 2.11645,1.18203 4.69555,1.17615 6.80681,-0.015 l 7.68289,-4.33504 c 1.82118,-1.02756 2.94104,-2.95849 2.94104,-5.04964 l -0.0221,-9.65336 c -0.004,-1.68995 -0.91959,-3.24621 -2.39495,-4.07032 L 31.52041,94.4508 c -0.7248,-0.40495 -1.52518,-0.65715 -2.35129,-0.74015 -0.23335,-0.0235 -0.46696,-0.0332 -0.69975,-0.03 z" />
    <rect
       style="display:inline;opacity:0.01;fill:#54d6ff;fill-opacity:0.01;stroke:none;stroke-width:1.59653;stroke-linejoin:round;stroke-dasharray:none;paint-order:fill markers stroke;stop-color:#000000"
       id="rect28799-8"
       width="29.681465"
       height="29.681465"
       x="13.758345"
       y="93.662498" />
    <path
       style="font-variation-settings:normal;display:inline;vector-effect:none;fill:url(#linearGradient3565);fill-opacity:1;stroke:none;stroke-width:2.20658;stroke-linecap:butt;stroke-linejoin:miter;stroke-miterlimit:4;stroke-dasharray:none;stroke-dashoffset:0;stroke-opacity:1;-inkscape-stroke:none;marker:none;paint-order:fill markers stroke;stop-color:#000000"
       d="m 28.50361,94.70987 c -0.19956,-0.013 -0.38168,0.07 -0.58275,0.048 -0.0922,0 -0.18137,0.01 -0.25707,0.051 -0.11043,0.015 -0.21956,0.03 -0.32225,0.067 -0.091,-0.01 -0.1705,0.019 -0.24967,0.05 -0.0638,-0.015 -0.0954,0.027 -0.14193,0.046 -0.0682,0 -0.13525,0.01 -0.17398,0.064 -0.0582,0.016 -0.12487,0.01 -0.16335,0.054 -0.0539,0.01 -0.1166,0 -0.14754,0.049 -0.0566,0 -0.10413,0.014 -0.13539,0.057 -0.0782,0 -0.099,0.084 -0.1766,0.075 -0.0303,0.039 -0.0763,0.048 -0.12971,0.052 -0.0248,0.034 -0.0605,0.043 -0.10427,0.052 -0.03,0.051 -0.0848,0.061 -0.13732,0.077 -0.008,0.048 -0.0807,0.022 -0.0881,0.072 -0.0465,0.01 -0.0875,0.018 -0.11292,0.055 -0.0836,-0.01 -0.0981,0.088 -0.17698,0.092 -0.0896,0.079 -0.21741,0.079 -0.29593,0.1743 -0.0737,0.038 -0.15428,0.072 -0.2129,0.1232 -0.067,-0.01 -0.10494,0.036 -0.14553,0.074 -0.0702,0 -0.0977,0.086 -0.17722,0.09 -0.0529,0.039 -0.10493,0.069 -0.16935,0.092 -0.0161,0.059 -0.10781,0.021 -0.12264,0.081 -0.0643,-0.01 -0.066,0.073 -0.13412,0.057 -0.073,0.045 -0.1476,0.1059 -0.23355,0.1417 -0.0551,0.054 -0.14415,0.058 -0.20086,0.097 -0.10571,0.1173 -0.29989,0.1447 -0.41174,0.2618 -0.0614,0 -0.0989,0.028 -0.14213,0.066 -0.0894,0.034 -0.16123,0.1024 -0.24977,0.1289 -0.0118,0.055 -0.10374,0.016 -0.11449,0.075 -0.0621,-0.01 -0.0582,0.063 -0.1149,0.059 -0.0533,0.039 -0.10598,0.073 -0.17274,0.082 -0.0554,0.069 -0.16765,0.077 -0.22728,0.1459 -0.14975,0.086 -0.31507,0.1607 -0.45612,0.2539 -0.0211,0.044 -0.0986,0.011 -0.1191,0.062 -0.0719,0.039 -0.1486,0.078 -0.20591,0.1302 -0.0726,-0.017 -0.0791,0.067 -0.14849,0.054 -0.0371,0.018 -0.0485,0.057 -0.10018,0.055 -0.0437,0.083 -0.1638,0.089 -0.23284,0.1335 -0.0296,0.055 -0.13212,0.052 -0.17347,0.1094 -0.063,0.061 -0.1628,0.069 -0.22974,0.1095 -0.0105,0.043 -0.0801,0.02 -0.0932,0.068 -0.0748,0.039 -0.14789,0.088 -0.21547,0.1288 -0.10755,0 -0.17364,0.1096 -0.26901,0.1384 -0.0168,0.057 -0.10926,0.018 -0.13475,0.077 -0.0886,0.07 -0.21399,0.097 -0.29264,0.1716 -0.0517,-0.01 -0.0753,0.024 -0.10217,0.051 -0.1267,0.045 -0.2268,0.1613 -0.36896,0.1768 -0.0475,0.073 -0.1544,0.098 -0.20839,0.1626 -0.14435,0.018 -0.25223,0.1379 -0.38023,0.1871 -0.0134,0.055 -0.10859,0.017 -0.11895,0.08 -0.0999,0.033 -0.18009,0.1159 -0.28305,0.1387 -0.0197,0.052 -0.10662,0.044 -0.1372,0.1001 -0.10742,0.085 -0.24623,0.1271 -0.3488,0.2243 -0.43284,0.3132 -0.82327,0.6856 -1.15385,1.0956 -0.0621,0.1029 -0.13455,0.2025 -0.20183,0.3025 -0.0246,0.058 -0.094,0.1011 -0.11345,0.1716 -0.0194,0.071 -0.0886,0.1118 -0.11398,0.1718 9.8e-4,0.064 -0.0653,0.1 -0.0583,0.167 -0.0711,0.037 -0.0506,0.1437 -0.11398,0.1983 -0.061,0.035 -0.0506,0.099 -0.0705,0.1576 -0.057,0.05 -0.0132,0.1475 -0.0781,0.1893 0.004,0.083 -0.0444,0.1446 -0.0799,0.213 0.0135,0.073 -0.0705,0.095 -0.0529,0.1702 0.0218,0.102 -0.0724,0.1615 -0.0509,0.2638 0.0132,0.1126 -0.071,0.1998 -0.0533,0.314 -0.0313,0.098 -0.0687,0.1919 -0.0559,0.3 -0.0309,2.4025 -0.0118,4.8055 -0.0155,7.2082 0.009,0.8485 -0.0132,1.6993 0.0288,2.5463 0.0879,0.1917 0.0579,0.4176 0.14218,0.6104 4.8e-4,0.063 0.003,0.1291 0.047,0.1723 0.004,0.068 0.006,0.1409 0.0698,0.1801 0.0217,0.05 6.4e-4,0.1196 0.0525,0.1508 0.0177,0.062 -9.8e-4,0.1418 0.0596,0.1782 0.0237,0.1128 0.11188,0.2074 0.14381,0.3154 0.0572,0.016 0.0211,0.1001 0.0738,0.1285 0.008,0.054 0.0216,0.097 0.0665,0.1322 0.0541,0.084 0.0983,0.1849 0.17096,0.2487 0.0312,0.088 0.10728,0.1616 0.14239,0.2451 0.054,0.013 0.0402,0.097 0.0958,0.1225 0.10755,0.1305 0.22803,0.2486 0.3413,0.3745 0.16092,0.2346 0.42831,0.375 0.6253,0.5771 0.004,0.067 0.10427,0.027 0.11751,0.088 0.0795,0 0.10572,0.093 0.18687,0.11 0.049,0.031 0.0657,0.079 0.12959,0.088 0.104,0.038 0.17144,0.1379 0.27407,0.1648 0.0132,0.056 0.10729,0.015 0.11673,0.079 0.1622,0.065 0.30488,0.1776 0.46577,0.2507 0.0616,0.048 0.13337,0.084 0.20055,0.113 0.0308,0.056 0.13333,0.036 0.17915,0.09 0.0414,0.03 0.0621,0.068 0.11778,0.072 0.016,0.059 0.10426,0.022 0.12775,0.079 0.10886,0.047 0.2129,0.1094 0.30646,0.1752 0.052,-0.01 0.0716,0.025 0.0983,0.051 0.0967,0.035 0.17775,0.1161 0.27965,0.1363 0.055,0.068 0.16849,0.081 0.21938,0.1525 0.0619,-0.011 0.0548,0.067 0.11568,0.055 0.0776,0.016 0.14222,0.065 0.1923,0.1146 0.057,-0.013 0.0719,0.033 0.10886,0.052 0.0517,0 0.0513,0.067 0.11201,0.055 0.11739,0.052 0.21692,0.1319 0.3323,0.1871 0.0268,0.047 0.11043,0.01 0.1348,0.07 0.0767,0.07 0.18878,0.1008 0.27168,0.1474 0.0156,0.042 0.0924,0.02 0.10109,0.078 0.0697,0.031 0.1434,0.057 0.20246,0.1114 0.13673,0.041 0.24026,0.144 0.37069,0.1989 0.0262,0.048 0.1158,0.014 0.13277,0.079 0.0417,0.03 0.0983,0.019 0.12658,0.066 0.0682,0.023 0.12775,0.064 0.17963,0.102 0.0955,0.028 0.17515,0.1005 0.26661,0.1421 0.0293,0.049 0.1128,0.017 0.14277,0.075 0.12014,0.092 0.29175,0.1317 0.38944,0.2412 0.12015,0.01 0.20395,0.1171 0.31754,0.1557 0.0512,0.037 0.0875,0.077 0.15621,0.076 0.0544,0.069 0.16749,0.077 0.22,0.152 0.0896,0 0.12591,0.081 0.21354,0.097 0.0464,0.025 0.0683,0.064 0.12394,0.069 0.0256,0.067 0.10887,0.051 0.15607,0.084 0.0309,0.056 0.13407,0.052 0.17786,0.1064 0.0638,0.045 0.11305,0.098 0.1944,0.106 0.0588,0.048 0.13929,0.066 0.19495,0.1111 0.0212,0.06 0.10741,0.029 0.12866,0.086 0.0512,-8e-4 0.0812,0.022 0.10912,0.054 0.0595,0 0.0801,0.074 0.15055,0.073 0.03,0.038 0.0663,0.057 0.12001,0.059 0.13333,0.1051 0.31521,0.1568 0.46119,0.2298 0.0303,0.056 0.13334,0.036 0.17899,0.09 0.0426,0.04 0.0798,0.074 0.14716,0.066 0.0418,0.041 0.1013,0.051 0.16532,0.049 0.0469,0.014 0.0712,0.064 0.13406,0.045 0.1472,0.036 0.2764,0.1353 0.43595,0.1277 0.10203,0.071 0.25232,0.01 0.3505,0.079 0.14499,0.01 0.2857,0.03 0.42563,0.063 0.34667,0.019 0.70082,0.042 1.04473,-0.01 0.24373,-0.081 0.51596,-0.05 0.75516,-0.1399 0.20923,-0.01 0.38316,-0.1452 0.58966,-0.1745 0.0733,-0.051 0.18998,-0.02 0.23573,-0.1032 0.04,-0.021 0.0954,-0.011 0.11424,-0.058 0.0767,0 0.12041,-0.066 0.19799,-0.061 0.0712,-0.073 0.19468,-0.1 0.26883,-0.1642 0.1412,-0.02 0.24773,-0.1375 0.37379,-0.186 0.0105,-0.056 0.10493,-0.014 0.11554,-0.075 0.0751,-0.033 0.15541,-0.071 0.21064,-0.1256 0.0722,0.018 0.0782,-0.066 0.14613,-0.053 0.1052,-0.054 0.19751,-0.156 0.32457,-0.1761 0.0142,-0.06 0.10216,-0.022 0.12145,-0.077 0.11437,-0.1097 0.28678,-0.117 0.39401,-0.2342 0.0687,-0.035 0.14252,-0.069 0.1975,-0.1163 0.11136,0 0.17855,-0.1129 0.27851,-0.14 0.0135,-0.054 0.10218,-0.018 0.11714,-0.075 0.0649,0 0.0939,-0.048 0.13573,-0.08 0.0888,-0.024 0.1568,-0.098 0.25027,-0.1092 0.10216,-0.1103 0.26409,-0.1663 0.40165,-0.2237 0.0161,-0.065 0.0949,-0.043 0.12066,-0.093 0.0693,-0.03 0.13488,-0.069 0.19224,-0.1077 0.0928,0 0.1229,-0.1066 0.21798,-0.1137 0.0478,-0.029 0.0765,-0.068 0.13933,-0.065 0.0339,-0.061 0.12485,-0.054 0.16669,-0.1102 0.0692,-0.021 0.12551,-0.065 0.17943,-0.1 0.0776,0.01 0.0897,-0.088 0.16645,-0.083 0.0638,-0.046 0.13024,-0.087 0.20601,-0.1033 0.11319,-0.1096 0.28718,-0.1596 0.41971,-0.2499 0.0871,-0.033 0.14034,-0.1062 0.23657,-0.13 0.0324,-0.057 0.11976,-0.029 0.14564,-0.094 0.0416,-0.032 0.10295,-0.015 0.13115,-0.064 0.13297,-0.054 0.23922,-0.1531 0.37526,-0.1989 0.0451,-0.059 0.12683,-0.063 0.18033,-0.097 0.11568,-0.1071 0.29953,-0.144 0.41174,-0.2623 0.062,10e-5 0.0986,-0.028 0.14217,-0.065 0.0894,-0.034 0.16123,-0.1024 0.24976,-0.1289 0.0118,-0.055 0.10375,-0.016 0.11451,-0.075 0.0632,0 0.0658,-0.07 0.13161,-0.059 0.0473,-0.029 0.0762,-0.084 0.14443,-0.076 0.0652,-0.069 0.17555,-0.087 0.24717,-0.1539 0.1406,-0.068 0.27801,-0.151 0.40765,-0.2304 0.0672,-0.048 0.1352,-0.089 0.21177,-0.1173 0.0593,-0.093 0.19044,-0.1151 0.25184,-0.1974 0.23014,-0.1124 0.37426,-0.359 0.60476,-0.4718 0.0898,-0.1842 0.28618,-0.3054 0.40139,-0.477 0.12631,-0.1525 0.23855,-0.3133 0.34128,-0.4798 0.0555,-0.027 0.0492,-0.1033 0.0939,-0.1281 0.0416,-0.03 0.0212,-0.1014 0.069,-0.1345 -9.8e-4,-0.053 0.0235,-0.081 0.0596,-0.1117 -1.7e-4,-0.074 0.0844,-0.092 0.0758,-0.1625 0.0225,-0.036 0.0649,-0.059 0.0504,-0.1141 0.008,-0.043 0.0663,-0.05 0.0514,-0.1051 0.0475,-0.072 0.0785,-0.1485 0.0837,-0.2352 0.0661,-0.043 0.0211,-0.1461 0.0823,-0.1986 0.009,-0.1081 0.077,-0.1972 0.0768,-0.3104 0.0367,-0.07 0.0702,-0.1405 0.057,-0.2256 -0.005,-0.09 0.0693,-0.1504 0.0495,-0.2459 0.003,-0.186 0.0514,-0.3641 0.0335,-0.5522 0.0139,-3.124 0.0135,-6.2482 -0.0161,-9.3721 -9.9e-4,-0.1208 -0.005,-0.2518 -0.0605,-0.3576 -0.0105,-0.094 0.004,-0.1969 -0.058,-0.2738 -0.0141,-0.095 -0.039,-0.1854 -0.0743,-0.2713 6.5e-4,-0.077 -0.0725,-0.1285 -0.0551,-0.2115 -0.0243,-0.041 -0.0616,-0.074 -0.0468,-0.1324 0.009,-0.077 -0.0932,-0.089 -0.0829,-0.1659 -0.0519,-0.1329 -0.10755,-0.2791 -0.1949,-0.3902 -0.0417,-0.026 -0.0142,-0.098 -0.0632,-0.1258 -0.009,-0.047 -0.016,-0.092 -0.061,-0.113 -0.0169,-0.086 -0.11974,-0.1333 -0.13799,-0.219 -0.0625,-0.024 -0.0455,-0.1245 -0.11476,-0.1586 -0.0447,-0.066 -0.0804,-0.1322 -0.14701,-0.1817 -0.0594,-0.1172 -0.18173,-0.2048 -0.24538,-0.3177 -0.13693,-0.044 -0.18445,-0.2225 -0.32208,-0.2753 -0.0414,-0.07 -0.0934,-0.122 -0.16545,-0.1604 -0.0908,-0.1112 -0.23069,-0.158 -0.32102,-0.2642 -0.0945,-0.032 -0.15899,-0.1233 -0.25731,-0.1444 -0.0168,-0.056 -0.10899,-0.042 -0.13731,-0.1005 -0.029,-0.054 -0.11123,-0.036 -0.1267,-0.093 -0.0423,-0.013 -0.0905,-0.01 -0.10755,-0.055 -0.11647,-0.032 -0.20204,-0.1368 -0.32135,-0.1741 -0.0801,-0.024 -0.13512,-0.096 -0.20534,-0.122 -0.0472,0 -0.0442,-0.07 -0.10638,-0.055 -0.12289,-0.029 -0.18575,-0.1379 -0.30833,-0.1684 -0.0269,-0.048 -0.0864,-0.033 -0.12526,-0.063 -0.0225,-0.049 -0.10755,-0.032 -0.13927,-0.085 -0.0708,-0.03 -0.13409,-0.076 -0.19435,-0.1132 -0.10532,-9e-4 -0.15915,-0.1163 -0.26004,-0.1428 -0.0482,-0.026 -0.10612,-0.024 -0.13038,-0.073 -0.0734,6e-4 -0.0872,-0.092 -0.16526,-0.086 -0.0991,-0.086 -0.23515,-0.1078 -0.3329,-0.196 -0.073,-0.027 -0.135,-0.075 -0.19665,-0.1103 -0.0813,0.01 -0.0978,-0.093 -0.18117,-0.08 -0.0525,-0.065 -0.1594,-0.076 -0.21266,-0.1386 -0.098,-0.021 -0.17156,-0.1019 -0.266,-0.1371 -0.0312,-0.055 -0.11674,-0.021 -0.15021,-0.082 -0.12093,-0.091 -0.29124,-0.133 -0.39034,-0.2411 -0.0878,0 -0.12565,-0.087 -0.21575,-0.098 -0.0429,-0.05 -0.11777,-0.054 -0.16419,-0.098 -0.0193,-0.045 -0.1018,-0.011 -0.11266,-0.068 -0.064,0 -0.0665,-0.072 -0.1347,-0.058 -0.0423,-0.018 -0.0583,-0.071 -0.11818,-0.068 -0.0639,-0.05 -0.14727,-0.077 -0.21392,-0.1261 -0.0252,-0.035 -0.0956,-0.021 -0.10625,-0.079 -0.15155,-0.055 -0.29825,-0.1435 -0.42807,-0.2339 -0.0946,-0.01 -0.16268,-0.089 -0.24996,-0.1144 -0.0199,-0.07 -0.11267,-0.041 -0.1386,-0.099 -0.0512,7e-4 -0.0812,-0.022 -0.10913,-0.054 -0.0591,0 -0.0568,-0.068 -0.1208,-0.061 -0.0387,-0.053 -0.10899,-0.054 -0.15787,-0.08 -0.0804,-0.064 -0.18673,-0.098 -0.26847,-0.1644 -0.054,-0.037 -0.12683,-0.024 -0.16093,-0.082 -0.0658,-0.031 -0.12841,-0.07 -0.17306,-0.1204 -0.0572,0.011 -0.0719,-0.034 -0.10924,-0.052 -0.12067,-0.019 -0.20419,-0.1205 -0.3048,-0.1693 -0.0678,0.013 -0.0742,-0.071 -0.14612,-0.054 -0.0262,-0.029 -0.0527,-0.049 -0.0942,-0.059 -0.0208,-0.06 -0.11686,-0.045 -0.1443,-0.101 -0.0875,0 -0.12211,-0.08 -0.20789,-0.094 -0.0609,-0.035 -0.0927,-0.097 -0.17205,-0.098 -0.24713,-0.086 -0.46653,-0.2578 -0.72726,-0.301 -0.0797,10e-4 -0.10216,-0.1026 -0.19426,-0.075 -0.0527,-0.014 -0.0821,-0.067 -0.15064,-0.047 -0.0678,0 -0.0953,-0.066 -0.16998,-0.048 -0.14,0.01 -0.26081,-0.067 -0.40273,-0.066 -0.0798,-0.029 -0.15213,-0.07 -0.24612,-0.055 -0.15592,0.01 -0.30662,-0.016 -0.45589,-0.043 -0.0927,-0.01 -0.18575,-0.01 -0.27866,-0.01 z m 0.20755,4.938 c 0.0817,0.01 0.18312,-0.013 0.24376,0.044 0.12932,0 0.20436,0.1222 0.32407,0.1571 0.0928,0.05 0.1888,0.1132 0.27778,0.1578 0.0248,0.054 0.12277,0.034 0.16473,0.081 0.0765,0.02 0.11293,0.096 0.17924,0.1183 0.0616,-0.013 0.0605,0.063 0.12158,0.054 0.10677,0.03 0.18463,0.1141 0.27437,0.1635 0.066,-0.015 0.0676,0.064 0.132,0.055 0.0803,0.04 0.1649,0.092 0.23682,0.1357 0.0161,0.049 0.10109,0.015 0.11398,0.071 0.10848,0.017 0.19199,0.1034 0.28757,0.1431 0.0132,0.055 0.10558,0.018 0.11922,0.079 0.1027,0.024 0.18348,0.1036 0.27984,0.146 0.0208,0.049 0.10716,0.01 0.11805,0.07 0.1048,0.028 0.19077,0.1043 0.28791,0.1518 0.0238,0.045 0.10284,0.011 0.12776,0.064 0.11095,0.097 0.28562,0.124 0.37987,0.2329 0.0657,0.044 0.16691,0.053 0.23409,0.1082 0.0749,0.029 0.14388,0.075 0.19223,0.1297 0.13839,0.032 0.27079,0.1135 0.3793,0.1986 0.0248,0.038 0.10037,0.01 0.11397,0.063 0.10847,0.017 0.192,0.1033 0.28756,0.1431 0.0139,0.056 0.10244,0.019 0.12368,0.075 0.10888,0.047 0.21291,0.1094 0.30648,0.1753 0.056,-0.013 0.0703,0.032 0.10558,0.051 0.0955,0.028 0.17515,0.1006 0.26659,0.1422 0.027,0.048 0.10664,0.015 0.13226,0.071 0.10426,0.057 0.20844,0.1224 0.31098,0.1753 0.0807,-0.01 0.1065,0.091 0.18712,0.1053 0.104,0.057 0.23448,0.099 0.30635,0.1862 0.13839,0.032 0.2708,0.1135 0.37933,0.1986 0.0508,0.044 0.14756,0.043 0.20251,0.097 0.0736,0.052 0.17061,0.078 0.22534,0.1422 0.11136,0.016 0.20648,0.1001 0.27664,0.1715 0.10191,0.027 0.13521,0.14 0.17625,0.2193 0.072,0.03 0.0432,0.1236 0.0802,0.1762 0.0362,2.0745 0.0176,4.1498 0.0204,6.2246 -0.009,0.7882 0.009,1.5808 -0.0257,2.3662 -0.0344,0.054 -0.0118,0.1395 -0.0872,0.1675 -0.0686,0.1776 -0.25858,0.2827 -0.41395,0.382 -0.0559,0.042 -0.14392,0.073 -0.20325,0.1237 -0.0466,0.01 -0.0726,0.033 -0.0953,0.066 -0.0908,0.03 -0.16741,0.1035 -0.25395,0.1375 -0.004,0.049 -0.0801,0.022 -0.0863,0.071 -0.0514,0.01 -0.0919,0.02 -0.11792,0.065 -0.0658,0.03 -0.12525,0.075 -0.17861,0.1144 -0.11923,0.011 -0.17868,0.1419 -0.29602,0.169 -0.0932,0.056 -0.18052,0.1142 -0.27512,0.1634 -0.0731,0.065 -0.17999,0.073 -0.24494,0.153 -0.0438,0.023 -0.0877,0.032 -0.10847,0.075 -0.11621,0.023 -0.19417,0.132 -0.29633,0.1707 -0.0435,0.01 -0.0466,0.069 -0.10584,0.05 -0.0375,0.014 -0.0431,0.057 -0.0922,0.057 -0.0674,0.049 -0.13404,0.1033 -0.21334,0.1265 -0.0105,0.048 -0.0861,0.027 -0.0946,0.08 -0.0935,0.028 -0.1705,0.1048 -0.25881,0.1388 -0.0191,0.054 -0.11306,0.037 -0.14308,0.094 -0.0454,0.056 -0.12341,0.049 -0.16201,0.1043 -0.1246,0.034 -0.19045,0.1383 -0.31158,0.1794 -0.13935,0.082 -0.27129,0.1766 -0.41887,0.2416 -0.0464,0.056 -0.11423,0.085 -0.17562,0.1109 -0.10229,0.096 -0.2512,0.145 -0.36059,0.2375 -0.0569,0.01 -0.0982,0.027 -0.13234,0.072 -0.088,0.022 -0.12289,0.1219 -0.2158,0.1167 -0.0272,0.027 -0.048,0.049 -0.0918,0.055 -0.0258,0.06 -0.12618,0.046 -0.16173,0.1107 -0.0394,0.048 -0.11869,0.035 -0.13809,0.095 -0.0935,0.028 -0.1705,0.1048 -0.25882,0.1389 -0.004,0.049 -0.0802,0.022 -0.0864,0.071 -0.0492,0.01 -0.0925,0.017 -0.1179,0.062 -0.0688,0.029 -0.12606,0.078 -0.18097,0.1169 -0.0683,-0.016 -0.0702,0.063 -0.13358,0.056 -0.0778,0.083 -0.20012,0.1263 -0.28929,0.1846 -0.0254,0.056 -0.11909,0.04 -0.14662,0.098 -0.14599,0.073 -0.27462,0.1893 -0.43024,0.2375 -0.0218,0.057 -0.11751,0.03 -0.15659,0.079 -0.16324,0.036 -0.35177,0.052 -0.50942,-0.01 -0.0422,-0.051 -0.13416,-0.015 -0.15632,-0.081 -0.11962,-0.045 -0.2069,-0.168 -0.26252,-0.2758 -0.0216,-0.063 -0.0676,-0.1183 -0.0529,-0.1936 0.0173,-0.059 -0.0856,-0.1341 -0.0152,-0.1736 0.0304,-0.096 9.8e-4,-0.2093 0.0674,-0.2916 0.0335,-0.138 0.17876,-0.2298 0.28436,-0.3198 0.0427,-0.01 0.0679,-0.031 0.0897,-0.061 0.0908,-0.03 0.16743,-0.1035 0.25396,-0.1374 0.0118,-0.053 0.0954,-0.03 0.11922,-0.083 0.0887,-0.054 0.18731,-0.1067 0.26444,-0.1676 0.0935,0 0.13484,-0.1099 0.2286,-0.1292 0.11831,-0.042 0.19445,-0.1574 0.31857,-0.1777 0.078,-0.1015 0.23782,-0.1216 0.3264,-0.2201 0.089,-0.037 0.17108,-0.083 0.24588,-0.1452 0.0743,-0.015 0.11043,-0.09 0.19257,-0.1047 0.1015,-0.075 0.2122,-0.1363 0.32079,-0.1994 0.0423,-0.039 0.12238,-0.051 0.16231,-0.107 0.0422,-0.039 0.11018,-0.028 0.13284,-0.082 0.0788,-0.01 0.11633,-0.094 0.1974,-0.1144 0.0867,-0.028 0.13011,-0.1167 0.22368,-0.1175 0.10887,-0.1235 0.2955,-0.1591 0.40932,-0.2776 0.0968,-0.01 0.1541,-0.1086 0.25401,-0.1119 0.0899,-0.1331 0.27811,-0.149 0.38716,-0.2645 0.0405,-0.014 0.0716,-0.027 0.0908,-0.062 0.0629,0.01 0.0609,-0.07 0.12656,-0.058 0.0731,-0.037 0.13289,-0.1046 0.20795,-0.1318 0.0105,-0.056 0.10729,-0.015 0.11449,-0.078 0.0996,-0.02 0.15315,-0.1311 0.25874,-0.1366 0.0118,-0.052 0.0879,-0.03 0.0983,-0.084 0.0936,-0.028 0.17061,-0.1048 0.25897,-0.1389 0.0118,-0.053 0.0954,-0.03 0.11922,-0.083 0.0848,-0.056 0.18608,-0.099 0.2576,-0.1656 0.0903,0.01 0.11241,-0.094 0.20114,-0.1078 0.0472,-0.028 0.0693,-0.08 0.13505,-0.069 0.0894,-0.053 0.16229,-0.1331 0.26591,-0.1703 0.0273,-0.037 0.064,-0.043 0.10388,-0.059 0.0395,-0.067 0.14633,-0.073 0.19913,-0.1359 0.0537,-0.013 0.1016,-0.03 0.0863,-0.099 0.0372,-1.3756 0.0118,-2.7523 0.02,-4.1284 -0.008,-1.0645 0.0161,-2.1299 -0.0239,-3.1937 0.0105,-0.052 -0.0521,-0.038 -0.0605,-0.079 -0.0419,-0.013 -0.0872,-0.011 -0.10702,-0.052 -0.0846,0.01 -0.1086,-0.072 -0.18393,-0.094 -0.0854,0 -0.0964,-0.1 -0.18228,-0.088 -0.0288,-0.033 -0.0563,-0.058 -0.10768,-0.069 -0.0997,-0.063 -0.21382,-0.1198 -0.31699,-0.164 -0.0602,-0.073 -0.18505,-0.088 -0.25899,-0.154 -0.0968,-0.047 -0.19398,-0.1048 -0.27381,-0.1662 -0.10414,-0.01 -0.1647,-0.11 -0.26813,-0.1259 -0.0756,-0.025 -0.10349,-0.1054 -0.18733,-0.1028 -0.064,-0.04 -0.12511,-0.084 -0.19773,-0.1049 -0.0192,-0.07 -0.1153,-0.038 -0.13623,-0.099 -0.12709,-0.02 -0.21946,-0.1215 -0.32447,-0.176 -0.0679,0.013 -0.0739,-0.072 -0.14618,-0.053 -0.0557,-0.058 -0.14337,-0.09 -0.21576,-0.1305 -0.0159,-0.058 -0.10217,-0.019 -0.1259,-0.073 -0.0727,-0.039 -0.15492,-0.07 -0.20682,-0.13 -0.0723,0.016 -0.0787,-0.068 -0.14866,-0.054 -0.044,-0.026 -0.0753,-0.073 -0.13657,-0.083 -0.0914,-0.061 -0.18668,-0.1236 -0.29371,-0.1484 -0.0148,-0.054 -0.10069,-0.039 -0.13152,-0.089 -0.22307,-0.13 -0.45507,-0.246 -0.67504,-0.3785 -0.0201,-0.048 -0.0988,-0.014 -0.11896,-0.065 -0.0643,-0.033 -0.13393,-0.061 -0.18421,-0.1062 -0.085,0.016 -0.10017,-0.091 -0.18309,-0.08 -0.0565,-0.06 -0.1581,-0.075 -0.21575,-0.1366 -0.0556,-0.01 -0.096,-0.039 -0.12998,-0.075 -0.0841,0.01 -0.11674,-0.081 -0.2008,-0.092 -0.0576,-0.024 -0.0598,-0.1053 -0.14168,-0.084 -0.0445,-0.011 -0.0582,-0.063 -0.117,-0.051 -0.0273,-0.029 -0.0497,-0.053 -0.0962,-0.062 -0.0663,-0.057 -0.15762,-0.088 -0.22776,-0.1251 -0.0172,-0.046 -0.0985,-0.011 -0.11137,-0.065 -0.0952,-0.034 -0.20029,0.025 -0.26492,0.083 -0.0793,-0.015 -0.0886,0.075 -0.1661,0.073 -0.0642,0.051 -0.14906,0.076 -0.21497,0.1273 -0.0277,0.035 -0.10492,0.014 -0.11987,0.072 -0.0434,0.03 -0.10362,0.017 -0.13294,0.066 -0.0656,0.025 -0.12958,0.061 -0.17791,0.1019 -0.0708,0.013 -0.11149,0.087 -0.19126,0.082 -0.0676,0.074 -0.18608,0.095 -0.26157,0.1663 -0.0537,0.043 -0.14232,0.029 -0.16921,0.092 -0.13143,0.05 -0.24687,0.1464 -0.38087,0.186 -0.0145,0.053 -0.10006,0.037 -0.12906,0.088 -0.0785,0.068 -0.19242,0.089 -0.27659,0.1352 -0.0292,0.056 -0.13063,0.055 -0.17112,0.1132 -0.0419,0.032 -0.10048,0.031 -0.12172,0.079 -0.14132,0.01 -0.21849,0.1426 -0.35164,0.1769 -0.0431,0.062 -0.13103,0.037 -0.17723,0.1 -0.0422,0.022 -0.0841,0.026 -0.11161,0.066 -0.069,0.023 -0.12618,0.066 -0.18151,0.1006 -0.0813,-0.01 -0.0981,0.093 -0.18166,0.08 -0.0514,0.066 -0.16055,0.074 -0.21147,0.1385 -0.0751,0.01 -0.11542,0.089 -0.19769,0.083 -0.0676,0.074 -0.18609,0.095 -0.26159,0.1663 -0.0537,0.043 -0.14232,0.029 -0.16921,0.092 -0.13144,0.05 -0.24688,0.1464 -0.38087,0.186 -0.0166,0.055 -0.10676,0.018 -0.12421,0.079 -0.0794,0.07 -0.19221,0.099 -0.28141,0.1419 -0.055,0.074 -0.17743,0.09 -0.24924,0.1539 -0.0729,0.042 -0.15728,0.045 -0.21412,0.1107 -0.10531,0.075 -0.23257,0.1216 -0.34441,0.1779 -0.0257,0.064 -0.1082,0.047 -0.14774,0.1005 -0.0983,0.072 -0.24583,0.094 -0.3259,0.1821 -0.0508,0.636 -0.018,1.2771 -0.0292,1.9149 0.003,1.465 -0.008,2.9324 0.0131,4.3958 0.3714,-0.3229 0.70022,-0.697 1.09003,-0.9971 0.0518,-0.017 0.0671,-0.088 0.135,-0.077 0.11398,-0.089 0.29306,-0.03 0.42999,-0.046 0.0798,-0.01 0.15073,0.011 0.2121,0.05 0.0725,0 0.11307,0.072 0.17804,0.094 0.0956,0.079 0.16147,0.1894 0.20561,0.2976 0.056,0.1247 0.0227,0.285 0.0277,0.4217 0.008,0.068 -0.0187,0.1226 -0.0485,0.1759 0.008,0.06 -0.0675,0.067 -0.0756,0.1256 -0.55994,0.5966 -1.18679,1.1329 -1.77706,1.702 -0.27411,0.2426 -0.5195,0.5244 -0.82215,0.7325 -0.0518,0.01 -0.0698,0.067 -0.13579,0.048 -0.10978,-0.034 -0.20913,0.1062 -0.30581,0.02 -0.0738,-0.036 -0.17995,0 -0.23197,-0.064 -0.17366,-0.01 -0.2627,-0.196 -0.39266,-0.2844 -0.20559,-0.1922 -0.41652,-0.385 -0.61713,-0.5776 -0.0358,-0.093 -0.16217,-0.1013 -0.20039,-0.1989 -0.0909,-0.091 -0.20287,-0.1736 -0.2699,-0.2791 -0.13435,-0.033 -0.15533,-0.1955 -0.28024,-0.2391 -0.0639,-0.034 -0.0841,-0.1134 -0.13103,-0.1516 -0.27884,-0.2272 -0.54349,-0.4795 -0.78159,-0.7463 -0.0321,-0.06 -0.10139,-0.1112 -0.11882,-0.188 -0.10388,-0.1736 -0.0605,-0.4018 0.0198,-0.5755 0.0729,-0.044 0.0519,-0.1498 0.13302,-0.1955 0.0834,-0.093 0.19765,-0.1553 0.31622,-0.1831 0.0776,-0.057 0.21317,-0.017 0.30794,-0.031 0.085,0 0.17019,8e-4 0.23529,0.046 0.15488,0.013 0.23572,0.1782 0.36435,0.2368 0.0839,0.1413 0.24357,0.228 0.34096,0.3617 0.0685,0.017 0.10217,0.08 0.13011,0.1325 0.18211,0.1253 0.33327,0.2963 0.5012,0.4375 0.0105,-2.3239 -0.008,-4.6482 0.0318,-6.9718 0.004,-0.058 0.038,-0.1046 0.0421,-0.1669 0.0602,-0.028 0.0482,-0.1186 0.1166,-0.1523 0.0822,-0.083 0.19666,-0.1214 0.28251,-0.1959 0.11607,-0.051 0.22081,-0.1269 0.34012,-0.1645 0.015,-0.066 0.10048,-0.041 0.11712,-0.098 0.14121,-0.035 0.26059,-0.1381 0.39042,-0.1926 0.0168,-0.057 0.11726,-0.029 0.15031,-0.082 0.0469,-0.056 0.13815,-0.053 0.16857,-0.1144 0.0471,0 0.0807,-0.017 0.1044,-0.052 0.10715,-0.014 0.1887,-0.1028 0.28226,-0.1412 0.0137,-0.054 0.10571,-0.019 0.11974,-0.078 0.1065,-0.017 0.18773,-0.1049 0.28314,-0.1411 0.0132,-0.054 0.10217,-0.018 0.11764,-0.075 0.0868,0.01 0.10651,-0.081 0.18667,-0.098 0.0743,-0.024 0.1103,-0.092 0.19307,-0.088 0.0901,-0.091 0.23212,-0.131 0.33491,-0.2071 0.0923,0.01 0.13318,-0.093 0.22172,-0.1135 0.16218,-0.078 0.30945,-0.1945 0.48192,-0.2452 0.0139,-0.049 0.0875,-0.029 0.11017,-0.079 0.0853,-0.07 0.20519,-0.096 0.29585,-0.1448 0.0105,-0.043 0.0801,-0.021 0.0932,-0.068 0.0748,-0.039 0.14788,-0.088 0.21548,-0.1288 0.10754,0 0.17363,-0.1097 0.26899,-0.1384 0.0135,-0.054 0.1019,-0.018 0.11739,-0.075 0.11333,-0.01 0.18396,-0.1139 0.2856,-0.144 0.0141,-0.054 0.10218,-0.019 0.11818,-0.075 0.0671,0 0.0973,-0.047 0.1442,-0.077 0.0653,0.014 0.0655,-0.062 0.12644,-0.056 0.0189,-0.05 0.0797,-0.035 0.11686,-0.064 0.0242,-0.055 0.11569,-0.04 0.14144,-0.096 0.0508,0.001 0.0818,-0.021 0.10899,-0.053 0.0582,0 0.0686,-0.071 0.13859,-0.058 0.0304,-0.06 0.12224,-0.051 0.15557,-0.1082 0.0508,0.001 0.0818,-0.021 0.10899,-0.053 0.0621,0 0.0673,-0.074 0.1342,-0.076 0.0723,-0.057 0.16991,-0.076 0.2455,-0.1162 0.0173,-0.047 0.0986,-0.035 0.12669,-0.084 0.0795,-0.066 0.18962,-0.093 0.27728,-0.1324 0.0926,-0.093 0.23435,-0.1559 0.3613,-0.2015 0.055,-0.01 0.0702,-0.081 0.13489,-0.09 0.0454,-0.032 0.11582,-0.018 0.1445,-0.064 0.10637,-0.022 0.21772,-0.015 0.3258,-0.016 z"
       id="path61221-94-6-0" />
  </g>
</svg>
